<svg width="25" height="25" viewBox="0 0 25 25" fill="none" xmlns="http://www.w3.org/2000/svg">
<path d="M19.5918 3.86841C20.1222 3.86841 20.6309 4.07912 21.006 4.45419C21.3811 4.82927 21.5918 5.33798 21.5918 5.86841V19.8684C21.5918 20.3988 21.3811 20.9075 21.006 21.2826C20.6309 21.6577 20.1222 21.8684 19.5918 21.8684H5.5918C5.06136 21.8684 4.55266 21.6577 4.17758 21.2826C3.80251 20.9075 3.5918 20.3988 3.5918 19.8684V5.86841C3.5918 5.33798 3.80251 4.82927 4.17758 4.45419C4.55266 4.07912 5.06136 3.86841 5.5918 3.86841H19.5918ZM19.0918 19.3684V14.0684C19.0918 13.2038 18.7483 12.3746 18.137 11.7632C17.5256 11.1519 16.6964 10.8084 15.8318 10.8084C14.9818 10.8084 13.9918 11.3284 13.5118 12.1084V10.9984H10.7218V19.3684H13.5118V14.4384C13.5118 13.6684 14.1318 13.0384 14.9018 13.0384C15.2731 13.0384 15.6292 13.1859 15.8917 13.4485C16.1543 13.711 16.3018 14.0671 16.3018 14.4384V19.3684H19.0918ZM7.4718 9.42841C7.91736 9.42841 8.34468 9.25141 8.65974 8.93635C8.9748 8.62129 9.1518 8.19397 9.1518 7.74841C9.1518 6.81841 8.4018 6.05841 7.4718 6.05841C7.02358 6.05841 6.59372 6.23646 6.27679 6.5534C5.95985 6.87033 5.7818 7.30019 5.7818 7.74841C5.7818 8.67841 6.5418 9.42841 7.4718 9.42841ZM8.8618 19.3684V10.9984H6.0918V19.3684H8.8618Z" fill="black"/>
</svg>
