<svg width="448" height="190" viewBox="0 0 448 190" fill="none" xmlns="http://www.w3.org/2000/svg">
<g clip-path="url(#clip0_778_4037)">
<mask id="mask0_778_4037" style="mask-type:alpha" maskUnits="userSpaceOnUse" x="0" y="0" width="448" height="358">
<path opacity="0.2" d="M211.878 92.9132C209.111 93.6413 196.296 94.806 183.335 95.5341C147.511 97.4273 150.424 99.6116 125.668 124.659C117.076 133.397 118.678 140.241 114.455 156.988C104.261 197.472 142.851 197.326 163.53 171.259C180.714 149.561 191.636 142.571 220.324 135.144C246.827 128.3 254.109 122.766 254.109 109.66C254.109 95.3888 234.013 87.2338 211.878 92.9132ZM216.829 125.534C186.976 132.669 166.879 142.717 154.793 157.279C135.716 180.143 128.871 184.948 127.852 175.774C127.27 171.114 135.57 144.464 138.774 140.241L149.55 126.115C164.55 106.31 163.53 107.038 189.16 105.728C201.393 105.145 214.353 103.982 217.848 103.253C240.565 98.4478 238.527 120.291 216.829 125.534Z" fill="#E5A000" style="fill:#E5A000;fill:color(display-p3 0.8980 0.6275 0.0000);fill-opacity:1;"/>
<path opacity="0.2" d="M413.131 111.408C404.393 100.049 391.141 81.4093 383.715 70.1962C339.299 3.50022 306.97 -7.85935 224.984 14.7124C192.218 23.7412 188.141 23.4505 136.153 5.82992C69.457 -16.7419 -6.99588 29.2752 10.1878 91.4568C20.964 130.63 21.1094 130.048 10.3332 167.765C-4.6661 220.772 -3.64673 243.344 15.4301 279.167C72.8061 386.784 209.547 382.706 246.973 272.468C258.623 238.246 262.992 229.509 273.914 218.733C293.136 199.802 299.98 199.365 323.426 216.549C356.628 240.868 386.481 247.13 415.169 235.772C459.293 218.297 458.711 170.822 413.131 111.408ZM341.629 208.831C291.388 172.862 249.157 193.977 225.129 267.226C210.421 312.078 202.558 322.418 171.831 337.854C119.261 364.212 53.0011 325.039 28.0993 252.955C18.925 226.16 20.8184 203.151 36.4002 155.095C43.9727 131.795 44.2638 126.261 39.1669 107.184C31.4488 78.2047 31.012 74.8562 33.342 63.6431C43.5357 15.0045 84.6019 3.20897 138.337 20.6839C185.957 36.2657 197.606 36.4108 246.099 23.0133C299.98 8.01401 322.115 17.0433 356.337 68.0119C371.773 91.0205 380.365 102.962 395.219 121.893C455.07 198.346 415.752 261.984 341.629 208.831Z" fill="#E5A000" style="fill:#E5A000;fill:color(display-p3 0.8980 0.6275 0.0000);fill-opacity:1;"/>
<path opacity="0.2" d="M317.454 90.5831C280.32 61.7495 287.892 44.8565 224.982 49.2252C195.275 51.264 208.381 57.3802 150.714 62.3314C108.774 65.972 73.533 74.4182 73.533 116.941C73.533 129.027 72.8048 135.29 70.4748 143.008C52.9998 200.53 78.484 265.187 118.385 265.041C144.306 264.895 159.743 252.518 181.295 214.364C194.401 191.21 212.604 173.443 229.788 168.201C232.409 167.473 248.574 166.307 265.757 165.725C315.415 163.977 330.56 156.113 337.841 128.299C341.773 113.445 338.133 106.602 317.454 90.5831ZM257.748 159.755C208.236 159.755 191.925 170.385 166.441 218.586C121.298 303.777 56.6406 243.198 90.2798 146.94C95.2311 132.815 95.5222 131.357 94.5028 119.853C92.0272 89.7088 111.104 76.7488 164.694 71.652C194.984 68.7395 202.265 66.1182 220.614 60.7301C230.225 57.8176 246.826 57.0898 255.564 58.8373C263.719 60.4392 280.32 82.2823 303.765 100.485C343.812 131.503 321.968 159.609 257.748 159.755Z" fill="#E5A000" style="fill:#E5A000;fill:color(display-p3 0.8980 0.6275 0.0000);fill-opacity:1;"/>
</mask>
<g mask="url(#mask0_778_4037)">
<rect x="-24" y="-39" width="496" height="229" fill="#E6DEC6" style="fill:#E6DEC6;fill:color(display-p3 0.9020 0.8706 0.7765);fill-opacity:1;"/>
</g>
</g>
<defs>
<clipPath id="clip0_778_4037">
<rect width="448" height="190" fill="white" style="fill:white;fill-opacity:1;"/>
</clipPath>
</defs>
</svg>
