<svg width="579" height="369" viewBox="0 0 579 369" fill="none" xmlns="http://www.w3.org/2000/svg">
<mask id="mask0_1012_3618" style="mask-type:alpha" maskUnits="userSpaceOnUse" x="0" y="0" width="579" height="369">
<rect width="579" height="369" fill="#D9D9D9"/>
</mask>
<g mask="url(#mask0_1012_3618)">
<g opacity="0.2">
<mask id="mask1_1012_3618" style="mask-type:alpha" maskUnits="userSpaceOnUse" x="128" y="11" width="642" height="665">
<path opacity="0.2" d="M508.01 440.547C509.841 436.435 521.03 419.565 532.898 402.945C565.847 357.127 560.3 358.549 553.943 303.512C551.682 284.367 541.706 279.593 525.316 257.922C485.681 205.554 447.863 253.047 459.486 304.085C469.189 346.533 467.011 366.816 447.877 409.328C430.179 448.587 429.799 462.97 445.88 475.874C463.391 489.926 493.184 473.298 508.01 440.547ZM463.11 414.503C483.749 370.848 491.208 336.297 485.241 307.129C475.972 261.21 476.814 248.081 489.075 255.863C495.366 259.737 519.892 296.161 521.919 304.25L528.64 331.381C538.172 369.286 538.282 367.318 514.655 400.056C503.325 415.638 491.992 432.686 489.444 437.691C472.972 470.297 448.178 446.288 463.11 414.503Z" fill="#E5A000"/>
<path opacity="0.2" d="M287.158 669.271C309.697 669.734 345.616 671.828 366.687 673.756C492.253 684.929 538.023 656.448 591.053 533.627C612.237 484.535 616.608 479.818 689.417 433.38C782.782 373.77 801.597 234.655 708.382 194.513C649.708 169.165 650.278 169.916 614.611 119.558C564.341 48.9617 535.642 27.9879 472.904 16.122C284.368 -19.4403 154.734 152.354 253.143 306.816C283.661 354.806 290.079 368.768 292.548 392.78C296.849 435.005 290.646 443.833 246.477 455.681C183.946 472.474 146.869 502.937 132.559 549.321C110.554 620.666 169.378 666.696 287.158 669.271ZM238.023 485.615C331.625 459.387 347.299 386.78 281.082 285.176C240.531 222.967 235.588 203.138 246.902 150.238C266.323 59.7831 379.628 17.0545 492.592 57.4761C534.502 72.6022 560.869 97.5805 604.491 164.016C625.623 196.249 632.127 202.055 660.552 214.585C703.708 233.649 708.247 236.409 719.711 250.309C769.353 310.707 743.391 372.708 669.04 421.434C603.035 464.52 591.386 478.671 560.078 551.362C525.429 632.242 492.556 650.51 396.323 642.315C352.893 638.6 329.782 637.384 291.929 636.969C139.192 635.129 99.8232 524.226 238.023 485.615Z" fill="#E5A000"/>
<path opacity="0.2" d="M406.914 572.385C478.855 555.212 492.127 581.136 548.708 499.646C575.457 461.188 555.048 471.247 605.754 395.616C642.582 340.572 666.917 289.016 614.743 247.147C599.913 235.246 592.946 228.187 585.771 217.728C532.399 139.65 427.974 107.256 388.866 156.357C363.522 188.305 363.51 219.433 389.103 283.444C404.608 322.323 408.484 362.151 397.997 388.396C396.309 392.329 381.823 413.31 365.618 434.968C318.868 497.618 313.605 523.943 340.564 560.264C354.917 579.713 366.899 581.984 406.914 572.385ZM380.83 431.019C429.581 370.268 432.597 339.79 398.547 261.061C338.47 121.791 476.461 102.105 561.446 238.157C573.902 258.14 575.403 259.932 590.523 270.009C629.946 296.652 627.065 332.819 580.553 403.591C554.302 443.624 550.349 455.139 538.894 482.958C533.004 497.618 517.551 518.704 506.804 527.704C496.809 536.133 453.662 534.995 408.243 545.839C330.753 564.434 317.776 509.959 380.83 431.019Z" fill="#E5A000"/>
</mask>
<g mask="url(#mask1_1012_3618)">
<rect x="855.48" y="243.602" width="780.306" height="568.254" transform="rotate(128.746 855.48 243.602)" fill="#0051B0"/>
</g>
</g>
</g>
</svg>
