<svg width="84" height="92" viewBox="0 0 84 92" fill="none" xmlns="http://www.w3.org/2000/svg">
<path d="M79.3179 86.5186C78.4634 86.5186 77.7829 86.3596 77.2762 86.0417C76.7694 85.7238 76.4068 85.2667 76.1882 84.6706C75.9696 84.0745 75.8604 83.369 75.8604 82.5543L75.8604 78.0387C75.8604 77.224 75.9696 76.5285 76.1882 75.9522C76.4068 75.366 76.7694 74.9189 77.2762 74.6109C77.7829 74.3029 78.4634 74.1489 79.3179 74.1489C80.1922 74.1489 80.8778 74.3029 81.3745 74.6109C81.8813 74.9189 82.2439 75.366 82.4625 75.9522C82.691 76.5285 82.8053 77.224 82.8053 78.0387L82.8053 82.5692C82.8053 83.374 82.691 84.0745 82.4625 84.6706C82.2439 85.2568 81.8813 85.7138 81.3745 86.0417C80.8778 86.3596 80.1922 86.5186 79.3179 86.5186ZM79.3179 84.8941C79.6855 84.8941 79.9538 84.8147 80.1227 84.6557C80.3015 84.4967 80.4207 84.2781 80.4804 83.9999C80.54 83.7218 80.5698 83.4187 80.5698 83.0909L80.5698 77.532C80.5698 77.1941 80.54 76.8911 80.4804 76.6229C80.4207 76.3546 80.3015 76.146 80.1227 75.9969C79.9538 75.838 79.6855 75.7585 79.3179 75.7585C78.9702 75.7585 78.7069 75.838 78.528 75.9969C78.3492 76.146 78.23 76.3546 78.1704 76.6229C78.1107 76.8911 78.0809 77.1941 78.0809 77.532L78.0809 83.0909C78.0809 83.4187 78.1058 83.7218 78.1555 83.9999C78.2151 84.2781 78.3343 84.4967 78.5131 84.6557C78.692 84.8147 78.9602 84.8941 79.3179 84.8941Z" fill="#1C1C1C"/>
<path d="M68.0415 86.3548L68.0415 74.2832H70.9327C71.7474 74.2832 72.433 74.3826 72.9894 74.5813C73.5557 74.77 73.9829 75.0979 74.271 75.5649C74.5691 76.0318 74.7181 76.6677 74.7181 77.4725C74.7181 77.9593 74.6734 78.3965 74.584 78.784C74.4946 79.1715 74.3406 79.5043 74.122 79.7825C73.9134 80.0508 73.6203 80.2594 73.2427 80.4084L74.9268 86.3548H72.7211L71.2606 80.8257H70.2472V86.3548H68.0415ZM70.2472 79.4397H70.9327C71.36 79.4397 71.6978 79.3801 71.9461 79.2609C72.2045 79.1317 72.3883 78.933 72.4976 78.6648C72.6069 78.3866 72.6615 78.0338 72.6615 77.6066C72.6615 77.0006 72.5472 76.5485 72.3187 76.2504C72.1001 75.9424 71.6779 75.7884 71.052 75.7884H70.2472L70.2472 79.4397Z" fill="#1C1C1C"/>
<path d="M61.9648 86.3548L61.9648 74.2832L67.0319 74.2832V75.8331L64.1705 75.8331L64.1705 79.3056L66.4209 79.3056V80.8406L64.1705 80.8406V84.8347L67.0617 84.8347V86.3548L61.9648 86.3548Z" fill="#1C1C1C"/>
<path d="M55.5146 86.3548V84.939L58.7636 75.8033H55.6935V74.2832L60.9841 74.2832V75.4158L57.616 84.8347L60.999 84.8347L60.999 86.3548L55.5146 86.3548Z" fill="#1C1C1C"/>
<path d="M47.7852 86.5186C46.9307 86.5186 46.2502 86.3596 45.7434 86.0417C45.2367 85.7238 44.8741 85.2667 44.6555 84.6706C44.4369 84.0745 44.3276 83.369 44.3276 82.5543L44.3276 78.0387C44.3276 77.224 44.4369 76.5285 44.6555 75.9522C44.8741 75.366 45.2367 74.9189 45.7434 74.6109C46.2502 74.3029 46.9307 74.1489 47.7852 74.1489C48.6595 74.1489 49.3451 74.3029 49.8418 74.6109C50.3485 74.9189 50.7112 75.366 50.9298 75.9522C51.1583 76.5285 51.2725 77.224 51.2725 78.0387L51.2725 82.5692C51.2725 83.374 51.1583 84.0745 50.9298 84.6706C50.7112 85.2568 50.3485 85.7138 49.8418 86.0417C49.3451 86.3596 48.6595 86.5186 47.7852 86.5186ZM47.7852 84.8941C48.1528 84.8941 48.4211 84.8147 48.59 84.6557C48.7688 84.4967 48.888 84.2781 48.9476 83.9999C49.0073 83.7218 49.0371 83.4187 49.0371 83.0909L49.0371 77.532C49.0371 77.1941 49.0073 76.8911 48.9476 76.6229C48.888 76.3546 48.7688 76.146 48.59 75.9969C48.4211 75.838 48.1528 75.7585 47.7852 75.7585C47.4374 75.7585 47.1742 75.838 46.9953 75.9969C46.8165 76.146 46.6972 76.3546 46.6376 76.6229C46.578 76.8911 46.5482 77.1941 46.5482 77.532L46.5482 83.0909C46.5482 83.4187 46.5731 83.7218 46.6227 83.9999C46.6823 84.2781 46.8016 84.4967 46.9804 84.6557C47.1593 84.8147 47.4275 84.8941 47.7852 84.8941Z" fill="#1C1C1C"/>
<path d="M36.5088 86.3548L36.5088 74.2832H39.4C40.2147 74.2832 40.9003 74.3826 41.4567 74.5813C42.023 74.77 42.4502 75.0979 42.7383 75.5649C43.0364 76.0318 43.1854 76.6677 43.1854 77.4725C43.1854 77.9593 43.1407 78.3965 43.0513 78.784C42.9619 79.1715 42.8079 79.5043 42.5893 79.7825C42.3807 80.0508 42.0876 80.2594 41.71 80.4084L43.3941 86.3548H41.1884L39.7279 80.8257H38.7145L38.7145 86.3548H36.5088ZM38.7145 79.4397H39.4C39.8272 79.4397 40.165 79.3801 40.4134 79.2609C40.6718 79.1317 40.8556 78.933 40.9649 78.6648C41.0741 78.3866 41.1288 78.0338 41.1288 77.6066C41.1288 77.0006 41.0145 76.5485 40.786 76.2504C40.5674 75.9424 40.1452 75.7884 39.5192 75.7884H38.7145L38.7145 79.4397Z" fill="#1C1C1C"/>
<path d="M28.4531 86.3548L28.4531 74.2832H31.3444C32.1591 74.2832 32.8446 74.3826 33.401 74.5813C33.9673 74.77 34.3945 75.0979 34.6827 75.5649C34.9807 76.0318 35.1298 76.6677 35.1298 77.4725C35.1298 77.9593 35.0851 78.3965 34.9956 78.784C34.9062 79.1715 34.7522 79.5043 34.5336 79.7825C34.325 80.0508 34.0319 80.2594 33.6544 80.4084L35.3384 86.3548H33.1327L31.6722 80.8257H30.6588L30.6588 86.3548H28.4531ZM30.6588 79.4397H31.3444C31.7716 79.4397 32.1094 79.3801 32.3578 79.2609C32.6161 79.1317 32.7999 78.933 32.9092 78.6648C33.0185 78.3866 33.0731 78.0338 33.0731 77.6066C33.0731 77.0006 32.9589 76.5485 32.7304 76.2504C32.5118 75.9424 32.0895 75.7884 31.4636 75.7884H30.6588L30.6588 79.4397Z" fill="#1C1C1C"/>
<path d="M20.3535 86.3548L22.7678 74.2832L25.1225 74.2832L27.5369 86.3548H25.4951L25.0182 83.5679L22.9169 83.5679L22.4251 86.3548H20.3535ZM23.1404 82.167L24.7798 82.167L23.9601 77.0999L23.1404 82.167Z" fill="#1C1C1C"/>
<path d="M15.9635 86.5186C15.1686 86.5186 14.5377 86.3497 14.0708 86.0119C13.6038 85.6741 13.266 85.1972 13.0573 84.5812C12.8586 83.9552 12.7593 83.22 12.7593 82.3755L12.7593 78.3218C12.7593 77.4574 12.8586 76.7123 13.0573 76.0863C13.2561 75.4604 13.6038 74.9835 14.1006 74.6556C14.6073 74.3178 15.3028 74.1489 16.187 74.1489C17.0117 74.1489 17.6674 74.288 18.1542 74.5662C18.6411 74.8444 18.9888 75.2468 19.1975 75.7734C19.4161 76.29 19.5253 76.9209 19.5253 77.6661V78.292H17.424V77.6065C17.424 77.219 17.3942 76.8861 17.3346 76.608C17.2849 76.3298 17.1756 76.1211 17.0067 75.982C16.8477 75.833 16.5844 75.7585 16.2168 75.7585C15.8293 75.7585 15.5462 75.8529 15.3673 76.0416C15.1984 76.2304 15.0891 76.4788 15.0395 76.7868C14.9997 77.0948 14.9799 77.4326 14.9799 77.8002L14.9799 82.8524C14.9799 83.2697 15.0146 83.6323 15.0842 83.9403C15.1537 84.2483 15.2829 84.4868 15.4717 84.6557C15.6604 84.8147 15.9287 84.8941 16.2764 84.8941C16.6341 84.8941 16.9073 84.8047 17.0961 84.6259C17.2849 84.447 17.4141 84.1987 17.4836 83.8807C17.5631 83.5628 17.6028 83.1852 17.6028 82.7481V81.6154L16.3062 81.6154L16.3062 80.2294L19.585 80.2294L19.585 86.3547H18.1691L18.0052 85.1624C17.8462 85.5598 17.6028 85.8877 17.275 86.146C16.957 86.3944 16.5199 86.5186 15.9635 86.5186Z" fill="#1C1C1C"/>
<path d="M9.19141 86.3548L9.19141 74.2832H11.3673L11.3673 86.3548H9.19141Z" fill="#1C1C1C"/>
<path d="M4.63038 86.5186C3.74612 86.5186 3.05064 86.3447 2.54393 85.997C2.04715 85.6492 1.69941 85.1773 1.5007 84.5812C1.30199 83.9751 1.20264 83.2796 1.20264 82.4947L1.20264 78.1877C1.20264 77.3631 1.30199 76.6477 1.5007 76.0416C1.69941 75.4356 2.04715 74.9686 2.54393 74.6407C3.05064 74.3129 3.74612 74.1489 4.63038 74.1489C5.46496 74.1489 6.11573 74.293 6.5827 74.5811C7.0596 74.8593 7.39741 75.2617 7.59612 75.7883C7.79483 76.3149 7.89418 76.9259 7.89418 77.6214L7.89418 78.6348H5.77793L5.77793 77.5916C5.77793 77.2538 5.75806 76.9458 5.71831 76.6676C5.68851 76.3894 5.59412 76.1708 5.43515 76.0118C5.28612 75.8429 5.02283 75.7585 4.64528 75.7585C4.26773 75.7585 3.98954 75.8479 3.8107 76.0267C3.6418 76.1956 3.53251 76.4291 3.48283 76.7272C3.43315 77.0153 3.40831 77.3432 3.40831 77.7108L3.40831 82.9567C3.40831 83.3939 3.44309 83.7565 3.51264 84.0447C3.58219 84.3229 3.70638 84.5365 3.88522 84.6855C4.07399 84.8246 4.32735 84.8941 4.64528 84.8941C5.01289 84.8941 5.27122 84.8097 5.42025 84.6408C5.57922 84.462 5.67857 84.2285 5.71831 83.9403C5.75806 83.6522 5.77793 83.3293 5.77793 82.9716L5.77793 81.8837H7.89418L7.89418 82.8524C7.89418 83.5678 7.7998 84.2036 7.61102 84.76C7.42225 85.3065 7.08941 85.7387 6.61251 86.0566C6.14554 86.3646 5.48483 86.5186 4.63038 86.5186Z" fill="#1C1C1C"/>
<path d="M39.3436 1C39.2252 13.741 40.048 28.8163 39.2439 27.981C34.6281 23.1876 29.3485 24.5589 26.933 26.0113C24.5768 27.4325 23.0808 30.4089 22.9749 34.124C22.8938 36.9664 25.3467 40.2857 25.7643 41.8502C23.6325 49.4175 20.5875 48.4669 19.2442 51.5774C18.1814 54.0364 17.5955 56.1308 17.2714 57.9852C16.9129 60.036 16.5296 62.9844 16.7789 66.5904" stroke="#1C1C1C" stroke-width="1.93" stroke-miterlimit="10" stroke-linecap="round"/>
<path d="M4.37354 42.9102C6.92609 43.6893 12.4177 48.6105 24.6288 44.989" stroke="#1C1C1C" stroke-width="1.93" stroke-miterlimit="10"/>
<path d="M21.2102 49.2305C11.0998 53.946 6.95458 58.8953 3.04004 61.5818" stroke="#1C1C1C" stroke-width="1.93" stroke-miterlimit="10"/>
<path d="M39.6016 55.9744C33.4586 49.6632 27.5837 44.8978 23.7252 38.253C19.5052 30.9881 14.4438 34.3292 6.18457 34.9556" stroke="#1C1C1C" stroke-width="1.93" stroke-miterlimit="10"/>
<path d="M28.5504 25.5281C26.4965 21.5886 22.9653 18.3971 22.9746 11.1509" stroke="#1C1C1C" stroke-width="1.93" stroke-miterlimit="10"/>
<path d="M22.9743 35.8415C21.2103 31.9612 17.0931 22.9042 15.3291 19.0239" stroke="#1C1C1C" stroke-width="1.93" stroke-miterlimit="10"/>
<path d="M38.6387 26.2082C35.9771 20.9161 32.2215 11.4882 27.7927 10.6093C23.5478 9.7678 18.8416 13.8787 16.5726 16.9206C12.5739 22.2844 15.1733 21.2091 10.2645 29.3124C8.45994 32.292 6.4154 33.6477 5.35573 36.0133C4.03115 38.9741 5.34638 40.6976 3.87531 45.5191C2.39801 50.3562 1.15446 50.9983 1.38197 55.2587C1.73104 61.7695 4.25243 69.1124 13.0259 68.8225C15.192 68.7508 18.9662 65.7495 20.8238 65.2072C27.7553 63.1907 25.4146 62.0749 29.9463 60.5322C33.4619 59.3354 35.2259 59.9356 39.2905 54.5163" stroke="#1C1C1C" stroke-width="1.93" stroke-miterlimit="10"/>
<path d="M43.6124 1C43.7308 13.741 42.908 28.8163 43.7121 27.981C48.3279 23.1876 53.6076 24.5589 56.023 26.0113C58.3792 27.4325 59.8752 30.4089 59.9812 34.124C60.0622 36.9664 57.6094 40.2857 57.1918 41.8502C59.3236 49.4175 62.3686 48.4669 63.7118 51.5774C64.7746 54.0364 65.3606 56.1308 65.6847 57.9852C66.0431 60.036 66.4265 62.9844 66.1771 66.5904" stroke="#1C1C1C" stroke-width="1.93" stroke-miterlimit="10" stroke-linecap="round"/>
<path d="M78.5825 42.9102C76.03 43.6893 70.5384 48.6105 58.3273 44.989" stroke="#1C1C1C" stroke-width="1.93" stroke-miterlimit="10"/>
<path d="M61.7458 49.2305C71.8563 53.946 76.0015 58.8953 79.916 61.5818" stroke="#1C1C1C" stroke-width="1.93" stroke-miterlimit="10"/>
<path d="M43.3545 55.9744C49.4975 49.6632 55.3724 44.8978 59.2308 38.253C63.4508 30.9881 68.5123 34.3292 76.7715 34.9556" stroke="#1C1C1C" stroke-width="1.93" stroke-miterlimit="10"/>
<path d="M54.4057 25.5281C56.4596 21.5886 59.9908 18.3971 59.9814 11.1509" stroke="#1C1C1C" stroke-width="1.93" stroke-miterlimit="10"/>
<path d="M59.9817 35.8415C61.7458 31.9612 65.8629 22.9042 67.627 19.0239" stroke="#1C1C1C" stroke-width="1.93" stroke-miterlimit="10"/>
<path d="M44.3174 26.2082C46.979 20.9161 50.7346 11.4882 55.1634 10.6093C59.4083 9.7678 64.1145 13.8787 66.3834 16.9206C70.3821 22.2844 67.7828 21.2091 72.6916 29.3124C74.4961 32.292 76.5407 33.6477 77.6003 36.0133C78.9249 38.9741 77.6097 40.6976 79.0807 45.5191C80.558 50.3562 81.8016 50.9983 81.5741 55.2587C81.225 61.7695 78.7036 69.1124 69.9302 68.8225C67.7641 68.7508 63.9898 65.7495 62.1323 65.2072C55.2008 63.1907 57.5414 62.0749 53.0098 60.5322C49.4942 59.3354 47.7301 59.9356 43.6656 54.5163" stroke="#1C1C1C" stroke-width="1.93" stroke-miterlimit="10"/>
</svg>
