<svg width="74" height="63" viewBox="0 0 74 63" fill="none" xmlns="http://www.w3.org/2000/svg">
<path d="M35.0845 1C34.9782 12.4317 35.7165 25.9578 34.995 25.2084C30.8536 20.9075 26.1165 22.1379 23.9493 23.4411C21.8352 24.7162 20.4929 27.3868 20.3978 30.7201C20.3251 33.2704 22.5259 36.2485 22.9006 37.6523C20.9879 44.442 18.2558 43.5891 17.0506 46.3799C16.097 48.5862 15.5713 50.4654 15.2804 52.1293C14.9589 53.9693 14.6149 56.6147 14.8386 59.8501" stroke="#FEFEFE" stroke-width="1.63241" stroke-miterlimit="10" stroke-linecap="round"/>
<path d="M3.70801 38.603C5.99825 39.3021 10.9255 43.7176 21.8818 40.4682" stroke="#FEFEFE" stroke-width="1.63241" stroke-miterlimit="10"/>
<path d="M18.8147 44.2744C9.74319 48.5054 6.02399 52.946 2.51172 55.3565" stroke="#FEFEFE" stroke-width="1.63241" stroke-miterlimit="10"/>
<path d="M35.3159 50.3253C29.8042 44.6626 24.533 40.3869 21.0711 34.425C17.2848 27.9066 12.7435 30.9044 5.33301 31.4664" stroke="#FEFEFE" stroke-width="1.63241" stroke-miterlimit="10"/>
<path d="M25.4007 23.0074C23.5579 19.4728 20.3896 16.6093 20.398 10.1077" stroke="#FEFEFE" stroke-width="1.63241" stroke-miterlimit="10"/>
<path d="M20.3976 32.261C18.8149 28.7795 15.1208 20.6531 13.5381 17.1716" stroke="#FEFEFE" stroke-width="1.63241" stroke-miterlimit="10"/>
<path d="M34.4523 23.6175C32.0642 18.8692 28.6945 10.4101 24.7209 9.62155C20.9122 8.86652 16.6896 12.555 14.6538 15.2842C11.0661 20.0968 13.3983 19.1321 8.99394 26.4027C7.37483 29.0761 5.54039 30.2925 4.58962 32.415C3.40115 35.0715 4.58123 36.6179 3.26133 40.944C1.93584 45.284 0.820082 45.86 1.02422 49.6827C1.33742 55.5244 3.5997 62.1127 11.4715 61.8526C13.415 61.7883 16.8015 59.0954 18.4681 58.6088C24.6873 56.7995 22.5872 55.7984 26.6532 54.4142C29.8075 53.3404 31.3903 53.879 35.0371 49.0165" stroke="#FEFEFE" stroke-width="1.63241" stroke-miterlimit="10"/>
<path d="M38.9155 1C39.0218 12.4317 38.2835 25.9578 39.005 25.2084C43.1464 20.9075 47.8835 22.1379 50.0507 23.4411C52.1648 24.7162 53.5071 27.3868 53.6022 30.7201C53.6749 33.2704 51.4741 36.2485 51.0994 37.6523C53.0121 44.442 55.7442 43.5891 56.9494 46.3799C57.903 48.5862 58.4287 50.4654 58.7196 52.1293C59.0411 53.9693 59.3851 56.6147 59.1614 59.8501" stroke="#FEFEFE" stroke-width="1.63241" stroke-miterlimit="10" stroke-linecap="round"/>
<path d="M70.292 38.603C68.0017 39.3021 63.0745 43.7176 52.1182 40.4682" stroke="#FEFEFE" stroke-width="1.63241" stroke-miterlimit="10"/>
<path d="M55.1853 44.2744C64.2568 48.5054 67.976 52.946 71.4883 55.3565" stroke="#FEFEFE" stroke-width="1.63241" stroke-miterlimit="10"/>
<path d="M38.6841 50.3253C44.1957 44.6626 49.467 40.3869 52.9289 34.425C56.7152 27.9066 61.2565 30.9044 68.667 31.4664" stroke="#FEFEFE" stroke-width="1.63241" stroke-miterlimit="10"/>
<path d="M48.5993 23.0074C50.4421 19.4728 53.6104 16.6093 53.602 10.1077" stroke="#FEFEFE" stroke-width="1.63241" stroke-miterlimit="10"/>
<path d="M53.6024 32.261C55.1851 28.7795 58.8792 20.6531 60.4619 17.1716" stroke="#FEFEFE" stroke-width="1.63241" stroke-miterlimit="10"/>
<path d="M39.5477 23.6175C41.9358 18.8692 45.3055 10.4101 49.2791 9.62155C53.0878 8.86652 57.3104 12.555 59.3462 15.2842C62.9339 20.0968 60.6017 19.1321 65.0061 26.4027C66.6252 29.0761 68.4596 30.2925 69.4104 32.415C70.5988 35.0715 69.4188 36.6179 70.7387 40.944C72.0642 45.284 73.1799 45.86 72.9758 49.6827C72.6626 55.5244 70.4003 62.1127 62.5285 61.8526C60.585 61.7883 57.1985 59.0954 55.5319 58.6088C49.3127 56.7995 51.4128 55.7984 47.3468 54.4142C44.1925 53.3404 42.6097 53.879 38.9629 49.0165" stroke="#FEFEFE" stroke-width="1.63241" stroke-miterlimit="10"/>
</svg>
